<?xml version="1.0" encoding="UTF-8" standalone="no"?>
<!DOCTYPE svg PUBLIC "-//W3C//DTD SVG 1.1//EN"
 "http://www.w3.org/Graphics/SVG/1.1/DTD/svg11.dtd">
<!-- Generated by graphviz version 2.50.0 (20211204.2007)
 -->
<!-- Pages: 1 -->
<svg width="234pt" height="260pt"
 viewBox="0.00 0.00 233.69 260.00" xmlns="http://www.w3.org/2000/svg" xmlns:xlink="http://www.w3.org/1999/xlink">
<g id="graph0" class="graph" transform="scale(1 1) rotate(0) translate(4 256)">
<polygon fill="white" stroke="transparent" points="-4,4 -4,-256 229.69,-256 229.69,4 -4,4"/>
<!-- n6 -->
<g id="node1" class="node">
<title>n6</title>
<ellipse fill="none" stroke="black" cx="88" cy="-18" rx="48.99" ry="18"/>
<text text-anchor="middle" x="88" y="-14.3" font-family="Times New Roman,serif" font-size="14.00">infra:apply</text>
</g>
<!-- n3 -->
<g id="node2" class="node">
<title>n3</title>
<ellipse fill="none" stroke="black" cx="88" cy="-162" rx="39.79" ry="18"/>
<text text-anchor="middle" x="88" y="-158.3" font-family="Times New Roman,serif" font-size="14.00">infra:init</text>
</g>
<!-- n5 -->
<g id="node3" class="node">
<title>n5</title>
<ellipse fill="none" stroke="black" cx="88" cy="-90" rx="44.39" ry="18"/>
<text text-anchor="middle" x="88" y="-86.3" font-family="Times New Roman,serif" font-size="14.00">infra:plan</text>
</g>
<!-- n3&#45;&gt;n5 -->
<g id="edge1" class="edge">
<title>n3&#45;&gt;n5</title>
<path fill="none" stroke="black" d="M88,-143.7C88,-135.98 88,-126.71 88,-118.11"/>
<polygon fill="black" stroke="black" points="91.5,-118.1 88,-108.1 84.5,-118.1 91.5,-118.1"/>
</g>
<!-- n5&#45;&gt;n6 -->
<g id="edge2" class="edge">
<title>n5&#45;&gt;n6</title>
<path fill="none" stroke="black" d="M88,-71.7C88,-63.98 88,-54.71 88,-46.11"/>
<polygon fill="black" stroke="black" points="91.5,-46.1 88,-36.1 84.5,-46.1 91.5,-46.1"/>
</g>
<!-- n4 -->
<g id="node4" class="node">
<title>n4</title>
<ellipse fill="none" stroke="black" cx="27" cy="-234" rx="27" ry="18"/>
<text text-anchor="middle" x="27" y="-230.3" font-family="Times New Roman,serif" font-size="14.00">lint</text>
</g>
<!-- n4&#45;&gt;n3 -->
<g id="edge3" class="edge">
<title>n4&#45;&gt;n3</title>
<path fill="none" stroke="black" d="M39.94,-218.15C47.85,-209.07 58.16,-197.24 67.2,-186.87"/>
<polygon fill="black" stroke="black" points="69.87,-189.13 73.8,-179.29 64.6,-184.53 69.87,-189.13"/>
</g>
<!-- n2 -->
<g id="node5" class="node">
<title>n2</title>
<ellipse fill="none" stroke="black" cx="149" cy="-234" rx="76.89" ry="18"/>
<text text-anchor="middle" x="149" y="-230.3" font-family="Times New Roman,serif" font-size="14.00">setup:environment</text>
</g>
<!-- n2&#45;&gt;n3 -->
<g id="edge4" class="edge">
<title>n2&#45;&gt;n3</title>
<path fill="none" stroke="black" d="M134.23,-216.05C126.63,-207.33 117.23,-196.54 108.9,-186.98"/>
<polygon fill="black" stroke="black" points="111.42,-184.55 102.21,-179.31 106.14,-189.15 111.42,-184.55"/>
</g>
</g>
</svg>
