<?xml version="1.0" encoding="UTF-8" standalone="no"?>
<!DOCTYPE svg PUBLIC "-//W3C//DTD SVG 1.1//EN"
 "http://www.w3.org/Graphics/SVG/1.1/DTD/svg11.dtd">
<!-- Generated by graphviz version 2.48.0 (20210717.1556)
 -->
<!-- Pages: 1 -->
<svg width="2196pt" height="404pt"
 viewBox="0.00 0.00 2196.00 404.00" xmlns="http://www.w3.org/2000/svg" xmlns:xlink="http://www.w3.org/1999/xlink">
<g id="graph0" class="graph" transform="scale(1 1) rotate(0) translate(4 400)">
<polygon fill="white" stroke="transparent" points="-4,4 -4,-400 2192,-400 2192,4 -4,4"/>
<!-- [root] azurerm_dns_zone.stacks_zones (expand) -->
<g id="node1" class="node">
<title>[root] azurerm_dns_zone.stacks_zones (expand)</title>
<polygon fill="none" stroke="black" points="1766,-252 1565,-252 1565,-216 1766,-216 1766,-252"/>
<text text-anchor="middle" x="1665.5" y="-230.3" font-family="Times New Roman,serif" font-size="14.00">azurerm_dns_zone.stacks_zones</text>
</g>
<!-- [root] azurerm_resource_group.rg (expand) -->
<g id="node6" class="node">
<title>[root] azurerm_resource_group.rg (expand)</title>
<polygon fill="none" stroke="black" points="1380.5,-108 1208.5,-108 1208.5,-72 1380.5,-72 1380.5,-108"/>
<text text-anchor="middle" x="1294.5" y="-86.3" font-family="Times New Roman,serif" font-size="14.00">azurerm_resource_group.rg</text>
</g>
<!-- [root] azurerm_dns_zone.stacks_zones (expand)&#45;&gt;[root] azurerm_resource_group.rg (expand) -->
<g id="edge1" class="edge">
<title>[root] azurerm_dns_zone.stacks_zones (expand)&#45;&gt;[root] azurerm_resource_group.rg (expand)</title>
<path fill="none" stroke="black" d="M1661.62,-215.86C1656.01,-195.31 1643.57,-161.47 1619.5,-144 1583.8,-118.09 1473.05,-104.16 1390.7,-97.18"/>
<polygon fill="black" stroke="black" points="1390.8,-93.68 1380.55,-96.34 1390.23,-100.65 1390.8,-93.68"/>
</g>
<!-- [root] var.dns_zones -->
<g id="node14" class="node">
<title>[root] var.dns_zones</title>
<polygon fill="none" stroke="black" points="1778.5,-180 1686.5,-180 1686.5,-144 1784.5,-144 1784.5,-174 1778.5,-180"/>
<polyline fill="none" stroke="black" points="1778.5,-180 1778.5,-174 "/>
<polyline fill="none" stroke="black" points="1784.5,-174 1778.5,-174 "/>
<text text-anchor="middle" x="1735.5" y="-158.3" font-family="Times New Roman,serif" font-size="14.00">var.dns_zones</text>
</g>
<!-- [root] azurerm_dns_zone.stacks_zones (expand)&#45;&gt;[root] var.dns_zones -->
<g id="edge2" class="edge">
<title>[root] azurerm_dns_zone.stacks_zones (expand)&#45;&gt;[root] var.dns_zones</title>
<path fill="none" stroke="black" d="M1682.8,-215.7C1691.36,-207.14 1701.84,-196.66 1711.2,-187.3"/>
<polygon fill="black" stroke="black" points="1713.8,-189.65 1718.4,-180.1 1708.85,-184.7 1713.8,-189.65"/>
</g>
<!-- [root] azurerm_key_vault.kv_nonprod (expand) -->
<g id="node2" class="node">
<title>[root] azurerm_key_vault.kv_nonprod (expand)</title>
<polygon fill="none" stroke="black" points="668.5,-252 474.5,-252 474.5,-216 668.5,-216 668.5,-252"/>
<text text-anchor="middle" x="571.5" y="-230.3" font-family="Times New Roman,serif" font-size="14.00">azurerm_key_vault.kv_nonprod</text>
</g>
<!-- [root] azurerm_key_vault.kv_nonprod (expand)&#45;&gt;[root] azurerm_resource_group.rg (expand) -->
<g id="edge3" class="edge">
<title>[root] azurerm_key_vault.kv_nonprod (expand)&#45;&gt;[root] azurerm_resource_group.rg (expand)</title>
<path fill="none" stroke="black" d="M474.23,-231.48C384.75,-227.78 261.39,-216.06 230.5,-180 220.09,-167.85 219.47,-155.59 230.5,-144 263.58,-109.23 942.73,-96 1198.34,-92.24"/>
<polygon fill="black" stroke="black" points="1198.4,-95.74 1208.35,-92.09 1198.3,-88.74 1198.4,-95.74"/>
</g>
<!-- [root] data.azurerm_client_config.current (expand) -->
<g id="node9" class="node">
<title>[root] data.azurerm_client_config.current (expand)</title>
<polygon fill="none" stroke="black" points="1022.5,-180 812.5,-180 812.5,-144 1022.5,-144 1022.5,-180"/>
<text text-anchor="middle" x="917.5" y="-158.3" font-family="Times New Roman,serif" font-size="14.00">data.azurerm_client_config.current</text>
</g>
<!-- [root] azurerm_key_vault.kv_nonprod (expand)&#45;&gt;[root] data.azurerm_client_config.current (expand) -->
<g id="edge4" class="edge">
<title>[root] azurerm_key_vault.kv_nonprod (expand)&#45;&gt;[root] data.azurerm_client_config.current (expand)</title>
<path fill="none" stroke="black" d="M655.7,-215.97C706.34,-205.72 770.92,-192.66 823.26,-182.07"/>
<polygon fill="black" stroke="black" points="824.12,-185.46 833.22,-180.05 822.73,-178.6 824.12,-185.46"/>
</g>
<!-- [root] var.app_application_id -->
<g id="node11" class="node">
<title>[root] var.app_application_id</title>
<polygon fill="none" stroke="black" points="788,-180 649,-180 649,-144 794,-144 794,-174 788,-180"/>
<polyline fill="none" stroke="black" points="788,-180 788,-174 "/>
<polyline fill="none" stroke="black" points="794,-174 788,-174 "/>
<text text-anchor="middle" x="721.5" y="-158.3" font-family="Times New Roman,serif" font-size="14.00">var.app_application_id</text>
</g>
<!-- [root] azurerm_key_vault.kv_nonprod (expand)&#45;&gt;[root] var.app_application_id -->
<g id="edge5" class="edge">
<title>[root] azurerm_key_vault.kv_nonprod (expand)&#45;&gt;[root] var.app_application_id</title>
<path fill="none" stroke="black" d="M608.19,-215.88C628.52,-206.39 653.97,-194.51 675.6,-184.42"/>
<polygon fill="black" stroke="black" points="677.34,-187.47 684.93,-180.07 674.38,-181.13 677.34,-187.47"/>
</g>
<!-- [root] var.app_object_id -->
<g id="node12" class="node">
<title>[root] var.app_object_id</title>
<polygon fill="none" stroke="black" points="353,-180 240,-180 240,-144 359,-144 359,-174 353,-180"/>
<polyline fill="none" stroke="black" points="353,-180 353,-174 "/>
<polyline fill="none" stroke="black" points="359,-174 353,-174 "/>
<text text-anchor="middle" x="299.5" y="-158.3" font-family="Times New Roman,serif" font-size="14.00">var.app_object_id</text>
</g>
<!-- [root] azurerm_key_vault.kv_nonprod (expand)&#45;&gt;[root] var.app_object_id -->
<g id="edge6" class="edge">
<title>[root] azurerm_key_vault.kv_nonprod (expand)&#45;&gt;[root] var.app_object_id</title>
<path fill="none" stroke="black" d="M505.31,-215.97C463.96,-205.33 410.81,-191.65 368.88,-180.85"/>
<polygon fill="black" stroke="black" points="369.58,-177.42 359.02,-178.32 367.83,-184.2 369.58,-177.42"/>
</g>
<!-- [root] var.app_tenant_id -->
<g id="node13" class="node">
<title>[root] var.app_tenant_id</title>
<polygon fill="none" stroke="black" points="488,-180 377,-180 377,-144 494,-144 494,-174 488,-180"/>
<polyline fill="none" stroke="black" points="488,-180 488,-174 "/>
<polyline fill="none" stroke="black" points="494,-174 488,-174 "/>
<text text-anchor="middle" x="435.5" y="-158.3" font-family="Times New Roman,serif" font-size="14.00">var.app_tenant_id</text>
</g>
<!-- [root] azurerm_key_vault.kv_nonprod (expand)&#45;&gt;[root] var.app_tenant_id -->
<g id="edge7" class="edge">
<title>[root] azurerm_key_vault.kv_nonprod (expand)&#45;&gt;[root] var.app_tenant_id</title>
<path fill="none" stroke="black" d="M538.23,-215.88C520.04,-206.51 497.31,-194.81 477.86,-184.8"/>
<polygon fill="black" stroke="black" points="479.39,-181.65 468.9,-180.19 476.19,-187.88 479.39,-181.65"/>
</g>
<!-- [root] var.key_vault_name_nonprod -->
<g id="node16" class="node">
<title>[root] var.key_vault_name_nonprod</title>
<polygon fill="none" stroke="black" points="177,-180 0,-180 0,-144 183,-144 183,-174 177,-180"/>
<polyline fill="none" stroke="black" points="177,-180 177,-174 "/>
<polyline fill="none" stroke="black" points="183,-174 177,-174 "/>
<text text-anchor="middle" x="91.5" y="-158.3" font-family="Times New Roman,serif" font-size="14.00">var.key_vault_name_nonprod</text>
</g>
<!-- [root] azurerm_key_vault.kv_nonprod (expand)&#45;&gt;[root] var.key_vault_name_nonprod -->
<g id="edge8" class="edge">
<title>[root] azurerm_key_vault.kv_nonprod (expand)&#45;&gt;[root] var.key_vault_name_nonprod</title>
<path fill="none" stroke="black" d="M474.17,-219.7C398.65,-209.27 291.36,-194.18 197.5,-180 196.03,-179.78 194.55,-179.55 193.06,-179.33"/>
<polygon fill="black" stroke="black" points="193.54,-175.86 183.12,-177.8 192.48,-182.78 193.54,-175.86"/>
</g>
<!-- [root] var.key_vault_sku -->
<g id="node18" class="node">
<title>[root] var.key_vault_sku</title>
<polygon fill="none" stroke="black" points="624.5,-180 512.5,-180 512.5,-144 630.5,-144 630.5,-174 624.5,-180"/>
<polyline fill="none" stroke="black" points="624.5,-180 624.5,-174 "/>
<polyline fill="none" stroke="black" points="630.5,-174 624.5,-174 "/>
<text text-anchor="middle" x="571.5" y="-158.3" font-family="Times New Roman,serif" font-size="14.00">var.key_vault_sku</text>
</g>
<!-- [root] azurerm_key_vault.kv_nonprod (expand)&#45;&gt;[root] var.key_vault_sku -->
<g id="edge9" class="edge">
<title>[root] azurerm_key_vault.kv_nonprod (expand)&#45;&gt;[root] var.key_vault_sku</title>
<path fill="none" stroke="black" d="M571.5,-215.7C571.5,-207.98 571.5,-198.71 571.5,-190.11"/>
<polygon fill="black" stroke="black" points="575,-190.1 571.5,-180.1 568,-190.1 575,-190.1"/>
</g>
<!-- [root] azurerm_key_vault.kv_prod (expand) -->
<g id="node3" class="node">
<title>[root] azurerm_key_vault.kv_prod (expand)</title>
<polygon fill="none" stroke="black" points="997,-252 824,-252 824,-216 997,-216 997,-252"/>
<text text-anchor="middle" x="910.5" y="-230.3" font-family="Times New Roman,serif" font-size="14.00">azurerm_key_vault.kv_prod</text>
</g>
<!-- [root] azurerm_key_vault.kv_prod (expand)&#45;&gt;[root] azurerm_resource_group.rg (expand) -->
<g id="edge10" class="edge">
<title>[root] azurerm_key_vault.kv_prod (expand)&#45;&gt;[root] azurerm_resource_group.rg (expand)</title>
<path fill="none" stroke="black" d="M997.22,-217.47C1000.01,-216.97 1002.78,-216.48 1005.5,-216 1097.02,-199.81 1129.98,-224.64 1211.5,-180 1230.54,-169.58 1229.72,-159.89 1244.5,-144 1253.16,-134.69 1262.73,-124.51 1271.16,-115.59"/>
<polygon fill="black" stroke="black" points="1273.89,-117.8 1278.22,-108.13 1268.81,-112.99 1273.89,-117.8"/>
</g>
<!-- [root] azurerm_key_vault.kv_prod (expand)&#45;&gt;[root] data.azurerm_client_config.current (expand) -->
<g id="edge11" class="edge">
<title>[root] azurerm_key_vault.kv_prod (expand)&#45;&gt;[root] data.azurerm_client_config.current (expand)</title>
<path fill="none" stroke="black" d="M912.23,-215.7C913,-207.98 913.93,-198.71 914.79,-190.11"/>
<polygon fill="black" stroke="black" points="918.28,-190.4 915.79,-180.1 911.31,-189.71 918.28,-190.4"/>
</g>
<!-- [root] azurerm_key_vault.kv_prod (expand)&#45;&gt;[root] var.app_application_id -->
<g id="edge12" class="edge">
<title>[root] azurerm_key_vault.kv_prod (expand)&#45;&gt;[root] var.app_application_id</title>
<path fill="none" stroke="black" d="M864.27,-215.88C837.97,-206.14 804.86,-193.87 777.14,-183.61"/>
<polygon fill="black" stroke="black" points="778.18,-180.26 767.58,-180.07 775.75,-186.82 778.18,-180.26"/>
</g>
<!-- [root] azurerm_key_vault.kv_prod (expand)&#45;&gt;[root] var.app_object_id -->
<g id="edge13" class="edge">
<title>[root] azurerm_key_vault.kv_prod (expand)&#45;&gt;[root] var.app_object_id</title>
<path fill="none" stroke="black" d="M823.79,-226.11C697.81,-215.84 469.16,-196.15 369.21,-180.12"/>
<polygon fill="black" stroke="black" points="369.54,-176.62 359.1,-178.43 368.39,-183.53 369.54,-176.62"/>
</g>
<!-- [root] azurerm_key_vault.kv_prod (expand)&#45;&gt;[root] var.app_tenant_id -->
<g id="edge14" class="edge">
<title>[root] azurerm_key_vault.kv_prod (expand)&#45;&gt;[root] var.app_tenant_id</title>
<path fill="none" stroke="black" d="M823.89,-224.65C743.53,-216.24 620.45,-201.65 504.16,-179.99"/>
<polygon fill="black" stroke="black" points="504.49,-176.49 494.01,-178.08 503.19,-183.37 504.49,-176.49"/>
</g>
<!-- [root] var.key_vault_name_prod -->
<g id="node17" class="node">
<title>[root] var.key_vault_name_prod</title>
<polygon fill="none" stroke="black" points="1196.5,-180 1040.5,-180 1040.5,-144 1202.5,-144 1202.5,-174 1196.5,-180"/>
<polyline fill="none" stroke="black" points="1196.5,-180 1196.5,-174 "/>
<polyline fill="none" stroke="black" points="1202.5,-174 1196.5,-174 "/>
<text text-anchor="middle" x="1121.5" y="-158.3" font-family="Times New Roman,serif" font-size="14.00">var.key_vault_name_prod</text>
</g>
<!-- [root] azurerm_key_vault.kv_prod (expand)&#45;&gt;[root] var.key_vault_name_prod -->
<g id="edge15" class="edge">
<title>[root] azurerm_key_vault.kv_prod (expand)&#45;&gt;[root] var.key_vault_name_prod</title>
<path fill="none" stroke="black" d="M961.85,-215.97C991.46,-206.14 1028.87,-193.73 1060.04,-183.39"/>
<polygon fill="black" stroke="black" points="1061.53,-186.58 1069.92,-180.11 1059.33,-179.94 1061.53,-186.58"/>
</g>
<!-- [root] azurerm_key_vault.kv_prod (expand)&#45;&gt;[root] var.key_vault_sku -->
<g id="edge16" class="edge">
<title>[root] azurerm_key_vault.kv_prod (expand)&#45;&gt;[root] var.key_vault_sku</title>
<path fill="none" stroke="black" d="M823.91,-217.25C773.09,-207.73 707.41,-194.94 640.65,-180.2"/>
<polygon fill="black" stroke="black" points="641.32,-176.77 630.8,-178.02 639.8,-183.6 641.32,-176.77"/>
</g>
<!-- [root] azurerm_log_analytics_workspace.la (expand) -->
<g id="node4" class="node">
<title>[root] azurerm_log_analytics_workspace.la (expand)</title>
<polygon fill="none" stroke="black" points="1546.5,-252 1324.5,-252 1324.5,-216 1546.5,-216 1546.5,-252"/>
<text text-anchor="middle" x="1435.5" y="-230.3" font-family="Times New Roman,serif" font-size="14.00">azurerm_log_analytics_workspace.la</text>
</g>
<!-- [root] azurerm_log_analytics_workspace.la (expand)&#45;&gt;[root] azurerm_resource_group.rg (expand) -->
<g id="edge17" class="edge">
<title>[root] azurerm_log_analytics_workspace.la (expand)&#45;&gt;[root] azurerm_resource_group.rg (expand)</title>
<path fill="none" stroke="black" d="M1526.46,-215.93C1579.51,-201.93 1630.73,-178.7 1601.5,-144 1574.85,-112.36 1470.45,-99.61 1390.72,-94.47"/>
<polygon fill="black" stroke="black" points="1390.83,-90.97 1380.64,-93.85 1390.4,-97.96 1390.83,-90.97"/>
</g>
<!-- [root] var.la_name -->
<g id="node19" class="node">
<title>[root] var.la_name</title>
<polygon fill="none" stroke="black" points="1374,-180 1297,-180 1297,-144 1380,-144 1380,-174 1374,-180"/>
<polyline fill="none" stroke="black" points="1374,-180 1374,-174 "/>
<polyline fill="none" stroke="black" points="1380,-174 1374,-174 "/>
<text text-anchor="middle" x="1338.5" y="-158.3" font-family="Times New Roman,serif" font-size="14.00">var.la_name</text>
</g>
<!-- [root] azurerm_log_analytics_workspace.la (expand)&#45;&gt;[root] var.la_name -->
<g id="edge18" class="edge">
<title>[root] azurerm_log_analytics_workspace.la (expand)&#45;&gt;[root] var.la_name</title>
<path fill="none" stroke="black" d="M1411.52,-215.7C1399.19,-206.8 1383.98,-195.82 1370.65,-186.2"/>
<polygon fill="black" stroke="black" points="1372.36,-183.12 1362.2,-180.1 1368.26,-188.79 1372.36,-183.12"/>
</g>
<!-- [root] var.la_retention -->
<g id="node20" class="node">
<title>[root] var.la_retention</title>
<polygon fill="none" stroke="black" points="1494.5,-180 1398.5,-180 1398.5,-144 1500.5,-144 1500.5,-174 1494.5,-180"/>
<polyline fill="none" stroke="black" points="1494.5,-180 1494.5,-174 "/>
<polyline fill="none" stroke="black" points="1500.5,-174 1494.5,-174 "/>
<text text-anchor="middle" x="1449.5" y="-158.3" font-family="Times New Roman,serif" font-size="14.00">var.la_retention</text>
</g>
<!-- [root] azurerm_log_analytics_workspace.la (expand)&#45;&gt;[root] var.la_retention -->
<g id="edge19" class="edge">
<title>[root] azurerm_log_analytics_workspace.la (expand)&#45;&gt;[root] var.la_retention</title>
<path fill="none" stroke="black" d="M1438.96,-215.7C1440.5,-207.98 1442.36,-198.71 1444.08,-190.11"/>
<polygon fill="black" stroke="black" points="1447.55,-190.6 1446.08,-180.1 1440.69,-189.22 1447.55,-190.6"/>
</g>
<!-- [root] var.la_sku -->
<g id="node21" class="node">
<title>[root] var.la_sku</title>
<polygon fill="none" stroke="black" points="1586.5,-180 1518.5,-180 1518.5,-144 1592.5,-144 1592.5,-174 1586.5,-180"/>
<polyline fill="none" stroke="black" points="1586.5,-180 1586.5,-174 "/>
<polyline fill="none" stroke="black" points="1592.5,-174 1586.5,-174 "/>
<text text-anchor="middle" x="1555.5" y="-158.3" font-family="Times New Roman,serif" font-size="14.00">var.la_sku</text>
</g>
<!-- [root] azurerm_log_analytics_workspace.la (expand)&#45;&gt;[root] var.la_sku -->
<g id="edge20" class="edge">
<title>[root] azurerm_log_analytics_workspace.la (expand)&#45;&gt;[root] var.la_sku</title>
<path fill="none" stroke="black" d="M1464.86,-215.88C1480.55,-206.72 1500.06,-195.34 1516.95,-185.48"/>
<polygon fill="black" stroke="black" points="1519.16,-188.25 1526.03,-180.19 1515.63,-182.21 1519.16,-188.25"/>
</g>
<!-- [root] azurerm_private_dns_zone.stacks_private_zones (expand) -->
<g id="node5" class="node">
<title>[root] azurerm_private_dns_zone.stacks_private_zones (expand)</title>
<polygon fill="none" stroke="black" points="1306,-252 1015,-252 1015,-216 1306,-216 1306,-252"/>
<text text-anchor="middle" x="1160.5" y="-230.3" font-family="Times New Roman,serif" font-size="14.00">azurerm_private_dns_zone.stacks_private_zones</text>
</g>
<!-- [root] azurerm_private_dns_zone.stacks_private_zones (expand)&#45;&gt;[root] azurerm_resource_group.rg (expand) -->
<g id="edge21" class="edge">
<title>[root] azurerm_private_dns_zone.stacks_private_zones (expand)&#45;&gt;[root] azurerm_resource_group.rg (expand)</title>
<path fill="none" stroke="black" d="M1196.03,-215.79C1212.18,-206.74 1230.72,-194.5 1244.5,-180 1261.86,-161.73 1275.36,-136.29 1283.94,-117.29"/>
<polygon fill="black" stroke="black" points="1287.19,-118.58 1287.96,-108.01 1280.77,-115.79 1287.19,-118.58"/>
</g>
<!-- [root] provider[&quot;registry.terraform.io/hashicorp/azurerm&quot;] -->
<g id="node10" class="node">
<title>[root] provider[&quot;registry.terraform.io/hashicorp/azurerm&quot;]</title>
<polygon fill="none" stroke="black" points="917.5,-36 639.83,-18 917.5,0 1195.17,-18 917.5,-36"/>
<text text-anchor="middle" x="917.5" y="-14.3" font-family="Times New Roman,serif" font-size="14.00">provider[&quot;registry.terraform.io/hashicorp/azurerm&quot;]</text>
</g>
<!-- [root] azurerm_resource_group.rg (expand)&#45;&gt;[root] provider[&quot;registry.terraform.io/hashicorp/azurerm&quot;] -->
<g id="edge22" class="edge">
<title>[root] azurerm_resource_group.rg (expand)&#45;&gt;[root] provider[&quot;registry.terraform.io/hashicorp/azurerm&quot;]</title>
<path fill="none" stroke="black" d="M1208.48,-73.03C1144.46,-61.14 1057.78,-45.05 995.71,-33.52"/>
<polygon fill="black" stroke="black" points="996.05,-30.02 985.58,-31.64 994.77,-36.91 996.05,-30.02"/>
</g>
<!-- [root] var.location -->
<g id="node22" class="node">
<title>[root] var.location</title>
<polygon fill="none" stroke="black" points="1470.5,-36 1394.5,-36 1394.5,0 1476.5,0 1476.5,-30 1470.5,-36"/>
<polyline fill="none" stroke="black" points="1470.5,-36 1470.5,-30 "/>
<polyline fill="none" stroke="black" points="1476.5,-30 1470.5,-30 "/>
<text text-anchor="middle" x="1435.5" y="-14.3" font-family="Times New Roman,serif" font-size="14.00">var.location</text>
</g>
<!-- [root] azurerm_resource_group.rg (expand)&#45;&gt;[root] var.location -->
<g id="edge23" class="edge">
<title>[root] azurerm_resource_group.rg (expand)&#45;&gt;[root] var.location</title>
<path fill="none" stroke="black" d="M1328.99,-71.88C1347.94,-62.47 1371.63,-50.71 1391.86,-40.67"/>
<polygon fill="black" stroke="black" points="1393.47,-43.77 1400.87,-36.19 1390.36,-37.5 1393.47,-43.77"/>
</g>
<!-- [root] var.resource_group_name -->
<g id="node23" class="node">
<title>[root] var.resource_group_name</title>
<polygon fill="none" stroke="black" points="1370,-36 1213,-36 1213,0 1376,0 1376,-30 1370,-36"/>
<polyline fill="none" stroke="black" points="1370,-36 1370,-30 "/>
<polyline fill="none" stroke="black" points="1376,-30 1370,-30 "/>
<text text-anchor="middle" x="1294.5" y="-14.3" font-family="Times New Roman,serif" font-size="14.00">var.resource_group_name</text>
</g>
<!-- [root] azurerm_resource_group.rg (expand)&#45;&gt;[root] var.resource_group_name -->
<g id="edge24" class="edge">
<title>[root] azurerm_resource_group.rg (expand)&#45;&gt;[root] var.resource_group_name</title>
<path fill="none" stroke="black" d="M1294.5,-71.7C1294.5,-63.98 1294.5,-54.71 1294.5,-46.11"/>
<polygon fill="black" stroke="black" points="1298,-46.1 1294.5,-36.1 1291,-46.1 1298,-46.1"/>
</g>
<!-- [root] azurerm_storage_account.sa (expand) -->
<g id="node7" class="node">
<title>[root] azurerm_storage_account.sa (expand)</title>
<polygon fill="none" stroke="black" points="2104.5,-180 1928.5,-180 1928.5,-144 2104.5,-144 2104.5,-180"/>
<text text-anchor="middle" x="2016.5" y="-158.3" font-family="Times New Roman,serif" font-size="14.00">azurerm_storage_account.sa</text>
</g>
<!-- [root] azurerm_storage_account.sa (expand)&#45;&gt;[root] azurerm_resource_group.rg (expand) -->
<g id="edge25" class="edge">
<title>[root] azurerm_storage_account.sa (expand)&#45;&gt;[root] azurerm_resource_group.rg (expand)</title>
<path fill="none" stroke="black" d="M1928.26,-145.19C1925.31,-144.77 1922.38,-144.37 1919.5,-144 1733.06,-119.81 1513.83,-104.14 1390.83,-96.5"/>
<polygon fill="black" stroke="black" points="1390.89,-93 1380.69,-95.88 1390.46,-99.99 1390.89,-93"/>
</g>
<!-- [root] var.sa_name -->
<g id="node25" class="node">
<title>[root] var.sa_name</title>
<polygon fill="none" stroke="black" points="2053.5,-108 1973.5,-108 1973.5,-72 2059.5,-72 2059.5,-102 2053.5,-108"/>
<polyline fill="none" stroke="black" points="2053.5,-108 2053.5,-102 "/>
<polyline fill="none" stroke="black" points="2059.5,-102 2053.5,-102 "/>
<text text-anchor="middle" x="2016.5" y="-86.3" font-family="Times New Roman,serif" font-size="14.00">var.sa_name</text>
</g>
<!-- [root] azurerm_storage_account.sa (expand)&#45;&gt;[root] var.sa_name -->
<g id="edge26" class="edge">
<title>[root] azurerm_storage_account.sa (expand)&#45;&gt;[root] var.sa_name</title>
<path fill="none" stroke="black" d="M2016.5,-143.7C2016.5,-135.98 2016.5,-126.71 2016.5,-118.11"/>
<polygon fill="black" stroke="black" points="2020,-118.1 2016.5,-108.1 2013,-118.1 2020,-118.1"/>
</g>
<!-- [root] azurerm_storage_container.sa_container (expand) -->
<g id="node8" class="node">
<title>[root] azurerm_storage_container.sa_container (expand)</title>
<polygon fill="none" stroke="black" points="2026.5,-252 1784.5,-252 1784.5,-216 2026.5,-216 2026.5,-252"/>
<text text-anchor="middle" x="1905.5" y="-230.3" font-family="Times New Roman,serif" font-size="14.00">azurerm_storage_container.sa_container</text>
</g>
<!-- [root] azurerm_storage_container.sa_container (expand)&#45;&gt;[root] azurerm_storage_account.sa (expand) -->
<g id="edge27" class="edge">
<title>[root] azurerm_storage_container.sa_container (expand)&#45;&gt;[root] azurerm_storage_account.sa (expand)</title>
<path fill="none" stroke="black" d="M1932.65,-215.88C1947.03,-206.81 1964.88,-195.55 1980.41,-185.76"/>
<polygon fill="black" stroke="black" points="1982.65,-188.48 1989.24,-180.19 1978.92,-182.56 1982.65,-188.48"/>
</g>
<!-- [root] var.sa_container -->
<g id="node24" class="node">
<title>[root] var.sa_container</title>
<polygon fill="none" stroke="black" points="1904.5,-180 1802.5,-180 1802.5,-144 1910.5,-144 1910.5,-174 1904.5,-180"/>
<polyline fill="none" stroke="black" points="1904.5,-180 1904.5,-174 "/>
<polyline fill="none" stroke="black" points="1910.5,-174 1904.5,-174 "/>
<text text-anchor="middle" x="1856.5" y="-158.3" font-family="Times New Roman,serif" font-size="14.00">var.sa_container</text>
</g>
<!-- [root] azurerm_storage_container.sa_container (expand)&#45;&gt;[root] var.sa_container -->
<g id="edge28" class="edge">
<title>[root] azurerm_storage_container.sa_container (expand)&#45;&gt;[root] var.sa_container</title>
<path fill="none" stroke="black" d="M1893.39,-215.7C1887.63,-207.47 1880.64,-197.48 1874.29,-188.42"/>
<polygon fill="black" stroke="black" points="1877.08,-186.29 1868.47,-180.1 1871.34,-190.3 1877.08,-186.29"/>
</g>
<!-- [root] data.azurerm_client_config.current (expand)&#45;&gt;[root] provider[&quot;registry.terraform.io/hashicorp/azurerm&quot;] -->
<g id="edge29" class="edge">
<title>[root] data.azurerm_client_config.current (expand)&#45;&gt;[root] provider[&quot;registry.terraform.io/hashicorp/azurerm&quot;]</title>
<path fill="none" stroke="black" d="M917.5,-143.87C917.5,-119.67 917.5,-75.21 917.5,-46.39"/>
<polygon fill="black" stroke="black" points="921,-46.19 917.5,-36.19 914,-46.19 921,-46.19"/>
</g>
<!-- [root] var.dns_zones_private -->
<g id="node15" class="node">
<title>[root] var.dns_zones_private</title>
<polygon fill="none" stroke="black" points="2182,-252 2045,-252 2045,-216 2188,-216 2188,-246 2182,-252"/>
<polyline fill="none" stroke="black" points="2182,-252 2182,-246 "/>
<polyline fill="none" stroke="black" points="2188,-246 2182,-246 "/>
<text text-anchor="middle" x="2116.5" y="-230.3" font-family="Times New Roman,serif" font-size="14.00">var.dns_zones_private</text>
</g>
<!-- [root] meta.count&#45;boundary (EachMode fixup) -->
<g id="node26" class="node">
<title>[root] meta.count&#45;boundary (EachMode fixup)</title>
<ellipse fill="none" stroke="black" cx="1606.5" cy="-306" rx="180.87" ry="18"/>
<text text-anchor="middle" x="1606.5" y="-302.3" font-family="Times New Roman,serif" font-size="14.00">[root] meta.count&#45;boundary (EachMode fixup)</text>
</g>
<!-- [root] meta.count&#45;boundary (EachMode fixup)&#45;&gt;[root] azurerm_dns_zone.stacks_zones (expand) -->
<g id="edge30" class="edge">
<title>[root] meta.count&#45;boundary (EachMode fixup)&#45;&gt;[root] azurerm_dns_zone.stacks_zones (expand)</title>
<path fill="none" stroke="black" d="M1620.78,-288.05C1627.85,-279.67 1636.53,-269.38 1644.35,-260.1"/>
<polygon fill="black" stroke="black" points="1647.17,-262.18 1650.94,-252.28 1641.82,-257.67 1647.17,-262.18"/>
</g>
<!-- [root] meta.count&#45;boundary (EachMode fixup)&#45;&gt;[root] azurerm_key_vault.kv_nonprod (expand) -->
<g id="edge31" class="edge">
<title>[root] meta.count&#45;boundary (EachMode fixup)&#45;&gt;[root] azurerm_key_vault.kv_nonprod (expand)</title>
<path fill="none" stroke="black" d="M1479.81,-293.14C1458.68,-291.31 1436.98,-289.53 1416.5,-288 1149.21,-268.05 1081.97,-269.35 814.5,-252 770.06,-249.12 721.06,-245.73 678.77,-242.74"/>
<polygon fill="black" stroke="black" points="678.96,-239.24 668.74,-242.03 678.47,-246.23 678.96,-239.24"/>
</g>
<!-- [root] meta.count&#45;boundary (EachMode fixup)&#45;&gt;[root] azurerm_key_vault.kv_prod (expand) -->
<g id="edge32" class="edge">
<title>[root] meta.count&#45;boundary (EachMode fixup)&#45;&gt;[root] azurerm_key_vault.kv_prod (expand)</title>
<path fill="none" stroke="black" d="M1477.21,-293.4C1456.9,-291.59 1436.13,-289.74 1416.5,-288 1237.15,-272.12 1188.99,-276.02 1007.34,-252.18"/>
<polygon fill="black" stroke="black" points="1007.54,-248.68 997.17,-250.84 1006.63,-255.62 1007.54,-248.68"/>
</g>
<!-- [root] meta.count&#45;boundary (EachMode fixup)&#45;&gt;[root] azurerm_log_analytics_workspace.la (expand) -->
<g id="edge33" class="edge">
<title>[root] meta.count&#45;boundary (EachMode fixup)&#45;&gt;[root] azurerm_log_analytics_workspace.la (expand)</title>
<path fill="none" stroke="black" d="M1565.98,-288.41C1542.24,-278.7 1512.05,-266.33 1486.68,-255.95"/>
<polygon fill="black" stroke="black" points="1487.8,-252.63 1477.22,-252.08 1485.15,-259.11 1487.8,-252.63"/>
</g>
<!-- [root] meta.count&#45;boundary (EachMode fixup)&#45;&gt;[root] azurerm_private_dns_zone.stacks_private_zones (expand) -->
<g id="edge34" class="edge">
<title>[root] meta.count&#45;boundary (EachMode fixup)&#45;&gt;[root] azurerm_private_dns_zone.stacks_private_zones (expand)</title>
<path fill="none" stroke="black" d="M1514.09,-290.5C1445.98,-279.81 1352.77,-265.18 1279.16,-253.62"/>
<polygon fill="black" stroke="black" points="1279.32,-250.11 1268.9,-252.01 1278.24,-257.02 1279.32,-250.11"/>
</g>
<!-- [root] meta.count&#45;boundary (EachMode fixup)&#45;&gt;[root] azurerm_storage_container.sa_container (expand) -->
<g id="edge35" class="edge">
<title>[root] meta.count&#45;boundary (EachMode fixup)&#45;&gt;[root] azurerm_storage_container.sa_container (expand)</title>
<path fill="none" stroke="black" d="M1673.97,-289.2C1718.11,-278.87 1776.07,-265.3 1822.96,-254.32"/>
<polygon fill="black" stroke="black" points="1823.84,-257.71 1832.78,-252.02 1822.25,-250.9 1823.84,-257.71"/>
</g>
<!-- [root] meta.count&#45;boundary (EachMode fixup)&#45;&gt;[root] var.dns_zones_private -->
<g id="edge36" class="edge">
<title>[root] meta.count&#45;boundary (EachMode fixup)&#45;&gt;[root] var.dns_zones_private</title>
<path fill="none" stroke="black" d="M1728.47,-292.69C1812.02,-283.6 1925.54,-269.98 2034.7,-252.06"/>
<polygon fill="black" stroke="black" points="2035.28,-255.51 2044.57,-250.42 2034.13,-248.6 2035.28,-255.51"/>
</g>
<!-- [root] provider[&quot;registry.terraform.io/hashicorp/azurerm&quot;] (close) -->
<g id="node27" class="node">
<title>[root] provider[&quot;registry.terraform.io/hashicorp/azurerm&quot;] (close)</title>
<ellipse fill="none" stroke="black" cx="1160.5" cy="-306" rx="246.96" ry="18"/>
<text text-anchor="middle" x="1160.5" y="-302.3" font-family="Times New Roman,serif" font-size="14.00">[root] provider[&quot;registry.terraform.io/hashicorp/azurerm&quot;] (close)</text>
</g>
<!-- [root] provider[&quot;registry.terraform.io/hashicorp/azurerm&quot;] (close)&#45;&gt;[root] azurerm_dns_zone.stacks_zones (expand) -->
<g id="edge37" class="edge">
<title>[root] provider[&quot;registry.terraform.io/hashicorp/azurerm&quot;] (close)&#45;&gt;[root] azurerm_dns_zone.stacks_zones (expand)</title>
<path fill="none" stroke="black" d="M1276.39,-290.07C1352.61,-280.1 1454.84,-266.46 1554.82,-252.08"/>
<polygon fill="black" stroke="black" points="1555.41,-255.54 1564.8,-250.64 1554.41,-248.61 1555.41,-255.54"/>
</g>
<!-- [root] provider[&quot;registry.terraform.io/hashicorp/azurerm&quot;] (close)&#45;&gt;[root] azurerm_key_vault.kv_nonprod (expand) -->
<g id="edge38" class="edge">
<title>[root] provider[&quot;registry.terraform.io/hashicorp/azurerm&quot;] (close)&#45;&gt;[root] azurerm_key_vault.kv_nonprod (expand)</title>
<path fill="none" stroke="black" d="M1037.38,-290.37C931.31,-277.76 779.75,-259.75 678.62,-247.73"/>
<polygon fill="black" stroke="black" points="679.03,-244.25 668.68,-246.55 678.2,-251.21 679.03,-244.25"/>
</g>
<!-- [root] provider[&quot;registry.terraform.io/hashicorp/azurerm&quot;] (close)&#45;&gt;[root] azurerm_key_vault.kv_prod (expand) -->
<g id="edge39" class="edge">
<title>[root] provider[&quot;registry.terraform.io/hashicorp/azurerm&quot;] (close)&#45;&gt;[root] azurerm_key_vault.kv_prod (expand)</title>
<path fill="none" stroke="black" d="M1101.57,-288.5C1065.66,-278.44 1019.54,-265.53 981.6,-254.91"/>
<polygon fill="black" stroke="black" points="982.22,-251.45 971.65,-252.12 980.33,-258.19 982.22,-251.45"/>
</g>
<!-- [root] provider[&quot;registry.terraform.io/hashicorp/azurerm&quot;] (close)&#45;&gt;[root] azurerm_log_analytics_workspace.la (expand) -->
<g id="edge40" class="edge">
<title>[root] provider[&quot;registry.terraform.io/hashicorp/azurerm&quot;] (close)&#45;&gt;[root] azurerm_log_analytics_workspace.la (expand)</title>
<path fill="none" stroke="black" d="M1224.98,-288.59C1264.95,-278.41 1316.53,-265.28 1358.63,-254.57"/>
<polygon fill="black" stroke="black" points="1359.73,-257.9 1368.56,-252.04 1358,-251.12 1359.73,-257.9"/>
</g>
<!-- [root] provider[&quot;registry.terraform.io/hashicorp/azurerm&quot;] (close)&#45;&gt;[root] azurerm_private_dns_zone.stacks_private_zones (expand) -->
<g id="edge41" class="edge">
<title>[root] provider[&quot;registry.terraform.io/hashicorp/azurerm&quot;] (close)&#45;&gt;[root] azurerm_private_dns_zone.stacks_private_zones (expand)</title>
<path fill="none" stroke="black" d="M1160.5,-287.7C1160.5,-279.98 1160.5,-270.71 1160.5,-262.11"/>
<polygon fill="black" stroke="black" points="1164,-262.1 1160.5,-252.1 1157,-262.1 1164,-262.1"/>
</g>
<!-- [root] provider[&quot;registry.terraform.io/hashicorp/azurerm&quot;] (close)&#45;&gt;[root] azurerm_storage_container.sa_container (expand) -->
<g id="edge42" class="edge">
<title>[root] provider[&quot;registry.terraform.io/hashicorp/azurerm&quot;] (close)&#45;&gt;[root] azurerm_storage_container.sa_container (expand)</title>
<path fill="none" stroke="black" d="M1326.77,-292.67C1447.96,-283.2 1616.39,-269.07 1774.05,-252.13"/>
<polygon fill="black" stroke="black" points="1774.86,-255.56 1784.42,-251.01 1774.11,-248.6 1774.86,-255.56"/>
</g>
<!-- [root] root -->
<g id="node28" class="node">
<title>[root] root</title>
<ellipse fill="none" stroke="black" cx="1383.5" cy="-378" rx="49.29" ry="18"/>
<text text-anchor="middle" x="1383.5" y="-374.3" font-family="Times New Roman,serif" font-size="14.00">[root] root</text>
</g>
<!-- [root] root&#45;&gt;[root] meta.count&#45;boundary (EachMode fixup) -->
<g id="edge43" class="edge">
<title>[root] root&#45;&gt;[root] meta.count&#45;boundary (EachMode fixup)</title>
<path fill="none" stroke="black" d="M1419.83,-365.6C1453.57,-355 1504.52,-339.01 1544.67,-326.41"/>
<polygon fill="black" stroke="black" points="1545.87,-329.7 1554.37,-323.36 1543.78,-323.02 1545.87,-329.7"/>
</g>
<!-- [root] root&#45;&gt;[root] provider[&quot;registry.terraform.io/hashicorp/azurerm&quot;] (close) -->
<g id="edge44" class="edge">
<title>[root] root&#45;&gt;[root] provider[&quot;registry.terraform.io/hashicorp/azurerm&quot;] (close)</title>
<path fill="none" stroke="black" d="M1347.17,-365.6C1313.65,-355.08 1263.17,-339.23 1223.14,-326.66"/>
<polygon fill="black" stroke="black" points="1224.06,-323.28 1213.47,-323.63 1221.97,-329.96 1224.06,-323.28"/>
</g>
</g>
</svg>
